<?xml version="1.0" encoding="UTF-8"?>
<svg xmlns="http://www.w3.org/2000/svg" xmlns:xlink="http://www.w3.org/1999/xlink" viewBox="0 0 50 50" width="50px" height="50px">
<g id="surface147659507">
<path style=" stroke:none;fill-rule:nonzero;fill:rgb(58.431375%,64.705884%,65.098041%);fill-opacity:1;" d="M 25 2 C 12.316406 2 2 12.316406 2 25 C 2 37.683594 12.316406 48 25 48 C 37.683594 48 48 37.683594 48 25 C 48 12.316406 37.683594 2 25 2 Z M 36.800781 13 L 37.070312 13 C 37.257812 17.796875 35.070312 22.617188 30.695312 26.992188 L 30.671875 27.011719 L 30.652344 27.035156 C 29.796875 27.996094 29.160156 28.605469 28.386719 29.210938 L 28 29.511719 L 28 30 C 28 33.96875 26.925781 36.660156 24.292969 39.292969 L 24 39.585938 L 24 31.613281 L 19.71875 33.730469 L 16.160156 30.308594 L 18.386719 26 L 10.414062 26 L 10.707031 25.707031 C 13.339844 23.074219 16.03125 22 20 22 L 20.449219 22 L 20.746094 21.664062 C 21.527344 20.785156 22.210938 20.101562 23.007812 19.304688 C 27.25 15.0625 31.765625 13 36.800781 13 Z M 29 19 C 27.894531 19 27 19.894531 27 21 C 27 22.105469 27.894531 23 29 23 C 30.105469 23 31 22.105469 31 21 C 31 19.894531 30.105469 19 29 19 Z M 14.773438 31.773438 L 15.601562 32.601562 C 15.027344 33.519531 14.9375 34.320312 15.011719 34.96875 C 15.667969 35.039062 16.488281 35 17.429688 34.429688 L 18.246094 35.246094 C 18.074219 35.46875 17.894531 35.683594 17.710938 35.867188 C 16.109375 37.46875 14.011719 38.167969 12.011719 37.96875 C 11.910156 35.96875 12.609375 33.867188 14.210938 32.269531 C 14.378906 32.097656 14.570312 31.933594 14.773438 31.773438 Z M 14.773438 31.773438 "/>
</g>
</svg>
