<?xml version="1.0" encoding="iso-8859-1"?>
<!-- Generator: Adobe Illustrator 19.0.0, SVG Export Plug-In . SVG Version: 6.00 Build 0)  -->
<svg version="1.1" id="Layer_1" xmlns="http://www.w3.org/2000/svg" xmlns:xlink="http://www.w3.org/1999/xlink" x="0px" y="0px"
	 viewBox="0 0 510.67 510.67" style="enable-background:new 0 0 510.67 510.67;" xml:space="preserve">
<g>
	<rect x="277.268" y="34.335" style="fill:#FFD46A;" width="56.761" height="43.617"/>
	<polygon style="fill:#4CC7BB;" points="146.066,237.821 192.874,237.547 239.354,173.076 248.373,117.455 146.339,191.014 	"/>
	<path style="fill:#4CC7BB;" d="M291.563,477.019l14.086,14.252l80.13-81.073l-49.938-307.947h-60.012l-12.955,77.601
		c-0.001,0.005-0.003,0.01-0.003,0.015L230.059,382.2l36.509-36.509c4.746-4.745,12.438-4.745,17.184,0
		c4.744,4.745,4.744,12.438,0,17.183l-52.81,52.811l13.047,13.2l52.886-52.886c4.746-4.745,12.438-4.745,17.184,0
		c4.744,4.745,4.744,12.438,0,17.183l-52.988,52.987l13.41,13.568l53.066-53.066c4.746-4.745,12.438-4.745,17.184,0
		c4.744,4.745,4.744,12.438,0,17.183L291.563,477.019z"/>
	<g>
		<path d="M294.683,510.67c-3.247,0-6.359-1.3-8.642-3.609l-93.111-94.207c-2.728-2.76-3.973-6.656-3.352-10.486l30.116-185.716
			l-21.685,30.079c-2.269,3.147-5.905,5.021-9.785,5.044l-65.274,0.382c-3.283,0.053-6.366-1.263-8.663-3.559
			c-2.296-2.296-3.578-5.416-3.559-8.662l0.381-65.274c0.023-3.88,1.897-7.516,5.044-9.785L242,74.15v-62
			C242,5.44,247.439,0,254.15,0h81.062c6.71,0,12.15,5.439,12.15,12.15v66.938l52.424,323.281c0.621,3.83-0.624,7.726-3.352,10.486
			l-93.111,94.207C301.042,509.37,297.93,510.67,294.683,510.67z M280.597,466.984l14.086,14.251l80.13-81.072L324.876,92.216
			h-60.013l-12.956,77.601c-0.004,0.028-0.009,0.055-0.014,0.083l-32.8,202.265l36.509-36.509c4.745-4.745,12.438-4.745,17.183,0
			s4.745,12.438,0,17.183l-52.81,52.811l13.047,13.201l52.887-52.887c4.745-4.745,12.438-4.745,17.183,0
			c4.745,4.745,4.745,12.438,0,17.183l-52.987,52.987l13.41,13.568l53.067-53.066c4.746-4.745,12.439-4.744,17.183,0
			c4.745,4.745,4.745,12.438,0,17.183L280.597,466.984z M135.375,180.979l-0.273,46.808l46.808-0.274l46.479-64.472l9.02-55.621
			L135.375,180.979z M266.302,67.917h56.762V24.3h-56.762V67.917z"/>
	</g>
</g>
<g>
</g>
<g>
</g>
<g>
</g>
<g>
</g>
<g>
</g>
<g>
</g>
<g>
</g>
<g>
</g>
<g>
</g>
<g>
</g>
<g>
</g>
<g>
</g>
<g>
</g>
<g>
</g>
<g>
</g>
</svg>
